<?xml version="1.0" encoding="utf-8"?>
<!-- Generator: Adobe Illustrator 26.0.3, SVG Export Plug-In . SVG Version: 6.00 Build 0)  -->
<svg version="1.0" id="katman_1" xmlns="http://www.w3.org/2000/svg" xmlns:xlink="http://www.w3.org/1999/xlink" x="0px" y="0px"
	 viewBox="0 0 800 600" style="enable-background:new 0 0 800 600;" xml:space="preserve">
<style type="text/css">
	.st0{fill-rule:evenodd;clip-rule:evenodd;fill:#EA505B;}
	.st1{fill:#743E7A;}
	.st2{fill-rule:evenodd;clip-rule:evenodd;fill:#743E7A;}
</style>
<g>
	<path class="st0" d="M132.6,290.9v1.6 M173.9,341.7l1.4-0.4l0.2,1.1c0.8,4.9,0.4,9.1-1.5,13.3c3,0.4,5.7,1.9,7.1,5
		c1,2.2,1.9,4.8,2,7.2c0.1,1.8-0.6,3.6-2,4.8c-0.8,0.7-1.9,1.1-3,1.1h-15.9c-0.9,2.5-2.7,4.8-5.4,5.5c-0.7,0.2-1.5,0.3-2.3,0.3
		c-0.8,0-1.6,0.1-2.4,0.1c-2.1,0-4.1,0-6.2,0c-3.2,0-6.4-0.1-9.6-0.2c-1.9,0-3.7-1.2-4.5-2.9c-0.8,1.8-2.6,2.9-4.5,2.9
		c-3.2,0.1-6.4,0.1-9.6,0.2c-2.1,0-4.1,0-6.2,0c-0.8,0-1.6,0-2.4-0.1c-0.8,0-1.5-0.1-2.3-0.3c-2.6-0.7-4.4-3-5.4-5.5H85.6
		c-1.1,0-2.1-0.4-3-1.1c-1.3-1.2-2.1-3-2-4.8c0-2.4,1-5,1.9-7.2c0.5-1.2,1.3-2.2,2.4-3c1.3-1,2.9-1.7,4.6-1.9
		c-2-4.3-2.3-8.5-1.5-13.3l0.2-1.1l1.5,0.4c0.2-0.9,0.4-1.8,0.7-2.7c1.1-3.2,3-6.1,5.6-8.2c0.9-0.8,2-1.4,3.1-1.9
		c0.2-2.9,0.5-5.8,1.2-8.7c0.6-3.9,1.7-7.6,3.4-11.1c-0.8-1-1.5-2.1-2.1-3.3c-0.1-0.2-0.2-0.4-0.2-0.6c-5.2-2.9-9.7-6.8-13.5-11.4
		c-2.2-2.7-5.5-7-5.8-10.6c-0.1-1.3-0.2-2.5-0.2-3.8c0-3,0.1-6,0.5-9c0.2-1.7,0.5-3.5,0.8-5.2c-2.3-2.7-4.3-5.6-6-8.7
		c-2.7-4.9-4.4-10.2-5-15.7c-0.6-5.5-0.2-11,1.2-16.3c0.7-2.7,3.2-4.5,5.9-4.5c10.4,0,19.4,4.2,27.7,9.7c15.7-9.6,35.4-9.6,51.1,0
		c8.3-5.5,17.3-9.7,27.7-9.7c2.8,0,5.2,1.9,5.9,4.5c1.4,5.3,1.8,10.9,1.2,16.3c-0.7,5.5-2.4,10.9-5,15.7c-1.7,3.1-3.7,6-6,8.7
		c0.3,1.6,0.6,3.3,0.8,5c0.4,3.1,0.6,6.1,0.5,9.2c0,1.3-0.1,2.6-0.2,3.8c-0.3,3.7-3.5,7.8-5.8,10.6c-3.7,4.6-8.3,8.5-13.5,11.4
		l-0.2,0.6c-0.4,0.9-0.9,1.8-1.4,2.7c-0.5,0.8-1,1.5-1.7,2.2c0.4,1,0.8,2,1.1,3c0.7,2.2,1.2,4.4,1.6,6.7c0.2,1.2,0.5,2.3,0.6,3.5
		c4.6-7.7,10.7-14.7,18.5-19c4.5-2.6,9.7-4,14.9-4c5.5,0.1,11,2.7,15.2,6.3c4.6,3.9,8.4,9.4,9,15.5c0.1,1,0,2-0.2,3
		c-0.9,3.2-3.2,5.9-6.3,7.2c-3.8,1.8-8.6,1.7-11.8-1.3c-1.8-1.7-2.4-3.6-3.3-5.8c-0.4-1.3-1.2-2.4-2.3-3.2c-1.5-1.2-3.4-1.7-5.4-1.6
		c-2.7,0.2-5.2,1.7-7.1,3.6c-1.1,1.1-2.1,2.2-3,3.4c-1.8,2.3-3.5,4.6-4.9,7.1c-1.1,1.9-2.1,3.9-3,5.9c0,0.1-0.1,0.2-0.2,0.3
		C173.9,341.6,173.9,341.6,173.9,341.7L173.9,341.7z M178.1,324.4c0.3,0,0.5,0,0.7,0.1c0.9-1.1,1.9-2.2,2.9-3.2
		c0.3-0.3,0.6-0.6,1-0.9c-1.3-0.9-2.3-2-3-3.4c-0.7-1.1-1.1-2.4-1.3-3.7c-2.1,1.8-4,3.8-5.7,6c-0.1,1.4,1.3,3,2.2,3.8
		C175.8,323.9,176.9,324.4,178.1,324.4L178.1,324.4z M176.7,327.3c-1.3-0.3-2.6-0.9-3.7-1.7c-1.1-0.9-2-1.9-2.7-3.2
		c-1.8,2.6-3.4,5.3-4.9,8.1c0.5,0.3,1,0.7,1.5,1c1.7,1.3,3.1,3,4.1,4.9C172.6,333.2,174.5,330.2,176.7,327.3L176.7,327.3z
		 M201.5,319.4c0,0.2,0,0.4-0.1,0.5c3.1,3,2.9,6.6,4.9,8.4c3.4,3.2,10.9-0.4,10.5-5.1c-0.4-4-2.8-8.1-6-11.2c0,0,0,0-0.1,0
		c-0.5-0.4-1.1-0.7-1.7-0.7C204.8,311.2,201.6,315.5,201.5,319.4L201.5,319.4z M198.6,317.9c0.2-1,0.5-2,0.9-3
		c1.2-3,3.7-5.3,6.8-6.3c-2.8-1.8-6-2.8-9.3-3c-0.9,0-1.8,0-2.7,0.1c-0.3,0.2-0.6,0.4-0.7,0.5c-0.2,0.1-0.3,0.3-0.5,0.4
		c-2.1,2.3-1.8,6.8,0,9.2c0.1,0.2,0.2,0.3,0.2,0.5C195.2,316.5,197,317.1,198.6,317.9L198.6,317.9z M190,316.7
		c-0.8-1.6-1.3-3.4-1.3-5.2c-0.1-1.6,0.3-3.2,0.9-4.7c-1.7,0.6-3.4,1.3-5,2.2c-1,0.5-1.9,1.1-2.9,1.8c0,0,0,0,0,0
		c-0.9,1.3,0,3.6,0.6,4.8c0.6,1.1,1.6,2.1,2.7,2.7c0.1,0.1,0.3,0.1,0.4,0.2C186.8,317.6,188.4,317,190,316.7L190,316.7z
		 M128.2,233.2c1.3,0,1.9,1.6,1,2.5c-0.9,0.9-2.5,0.3-2.5-1C126.7,233.8,127.4,233.2,128.2,233.2L128.2,233.2z M128.2,239.5
		c1.3,0,1.9,1.6,1,2.5c-0.9,0.9-2.5,0.3-2.5-1C126.7,240.2,127.4,239.5,128.2,239.5L128.2,239.5z M137.1,233.2c1.3,0,1.9,1.6,1,2.5
		c-0.9,0.9-2.5,0.3-2.5-1C135.6,233.8,136.3,233.2,137.1,233.2L137.1,233.2z M137.1,239.5c1.3,0,1.9,1.6,1,2.5
		c-0.9,0.9-2.5,0.3-2.5-1C135.6,240.2,136.3,239.5,137.1,239.5L137.1,239.5z M133.8,228.4v17.3c9.2,0.2,18.3,2.8,23.9,7.7
		c6.4,5.7,10.7,15.5,10.2,20.6c-0.4,4.6-7.8,7.8-17.7,9.4c0.5,0.9,0.8,1.8,1,2.8c0.2,1.4,0.2,2.8,0,4.2c3.7-0.4,7.1-1,10.1-1.6
		c5.3-1.1,10.5-2.7,15.5-4.7c0.2-0.5,0.3-0.9,0.3-1.4c0,0,2.1-19.4-8.9-35.3C160.5,235.9,147.7,228.9,133.8,228.4L133.8,228.4z
		 M131.4,245.7v-17.3c-14.1,0.4-27.1,7.7-34.9,19.5c-10.6,15.8-8.5,34.8-8.5,34.8c0.1,0.5,0.2,1,0.4,1.5c5,2,10.2,3.5,15.5,4.6
		c3,0.6,6.3,1.2,10.1,1.6c-0.2-1.4-0.3-2.8,0-4.2c0.2-1,0.5-2,1-2.8c-9.9-1.6-17.2-4.8-17.7-9.4c-0.5-5.2,3.8-15,10.2-20.6
		C113.1,248.5,122.2,245.9,131.4,245.7L131.4,245.7z M114.8,293c-3.8-0.4-7.6-1-11.4-1.8c-4.5-1-8.9-2.2-13.3-3.8c0.7,1,1.4,2,2.2,3
		c5.3,6.4,12.2,11.2,20.1,13.8c2.6,0.9,5.2,1.6,7.9,2.1c0,0,0-0.1,0-0.1c-0.3-0.7-0.3-1.5-0.2-2.2c0.3-1.9,1.7-3,3.5-3.8
		c-3.4-1.2-6.5-3.1-8.3-6.2C115.1,293.7,114.9,293.4,114.8,293L114.8,293z M123.4,305c0.4,1,1.7,1.8,3.3,2.3
		c1.9,0.2,3.9,0.4,5.9,0.5c2-0.1,4-0.3,5.9-0.5c1.5-0.5,2.7-1.2,3.2-2.1C143.8,301.3,122.1,301.4,123.4,305L123.4,305z M175.1,287.4
		c-4.3,1.6-8.7,2.8-13.2,3.8c-3.8,0.8-7.5,1.4-11.4,1.8c-0.2,0.3-0.3,0.7-0.5,1c-1.8,3.1-4.8,5-8.3,6.2c1.8,0.8,3.1,1.9,3.5,3.7
		c0.2,0.8,0.1,1.6-0.2,2.4c6.5-1.2,12.7-3.6,18.2-7.1c3.9-2.7,7.3-5.9,10.2-9.6C174,288.9,174.5,288.2,175.1,287.4L175.1,287.4z
		 M131.7,293.8c-0.9,1.6-2.8,4-6.8,3.2c-4.9-1.6-8.4-4.9-7.5-10.1c0.8-4.8,8.7-7.7,15.2-7.7h0.1c6.5-0.1,14.4,2.9,15.2,7.7
		c0.8,4.6-1.8,7.6-5.6,9.4c-5.8,2.1-7.8-0.6-8.7-2.4c-0.4-0.9-0.6-1.3-0.8-1.3h-0.1C132.4,292.6,132.2,293,131.7,293.8L131.7,293.8z
		 M132.6,281.4c-3.9,0-8.7,1.1-9.1,3.6c-0.8,4,5.2,6,9.1,6h0.1c3.9,0,9.9-2,9.1-6C141.3,282.5,136.5,281.4,132.6,281.4L132.6,281.4z
		 M121.7,273.4c0,1.9-2.9,1.9-2.9,0c0-1.6-0.5-3.1-1.5-4.3c-0.9-1-2.2-1.7-3.5-1.7c-0.9,0-1.8,0.3-2.5,0.8c-0.8,0.6-1.5,1.4-1.9,2.3
		c-0.3,0.7-1.2,1-1.9,0.7c-0.7-0.3-1-1.2-0.7-1.9c0.7-1.4,1.7-2.6,2.9-3.5c1.2-0.8,2.7-1.3,4.2-1.3c2.2,0,4.3,1,5.7,2.7
		C120.9,269,121.7,271.2,121.7,273.4L121.7,273.4z M143.6,273.4c0,1.9,2.9,1.9,2.9,0c0-1.6,0.5-3.1,1.5-4.3c0.9-1,2.2-1.7,3.5-1.7
		c0.9,0,1.8,0.3,2.5,0.8c0.8,0.6,1.5,1.4,1.9,2.3c0.8,1.7,3.4,0.5,2.6-1.2c-0.7-1.4-1.7-2.6-2.9-3.5c-1.2-0.8-2.7-1.3-4.2-1.3
		c-2.2,0-4.3,1-5.7,2.7C144.4,268.9,143.5,271.2,143.6,273.4L143.6,273.4z M144.7,312.3c-3.1,1-6.3,1.6-9.6,1.8
		c-7.5,0.4-15-1.2-21.6-4.8c-1.3-0.4-2.5-0.8-3.8-1.2c3,4.1,7.3,7.2,12.1,8.8c-4.9-0.8-9.9-2.4-13.8-5c-2.5,5.4-4,12.9-2.8,23.2
		c0.3,2.3,0.6,4.6,1.1,6.6c6.5-2.9,11.1-1.8,16.7,2c0.4-6.2,1.6-12.4,3.4-18.4c0.4-1.2,0.9-1.7,1.6-1.8c0.7-0.1,2,0,1.9,2.1
		c-0.2,0.9-0.4,1.9-0.5,2.7c-0.4,2-0.7,4-1,6c-0.3,2-0.6,4-0.8,6c-0.2,1.3-0.3,2.6-0.4,3.9c0,0.7-0.1,1.5-0.1,2.2
		c3.1,0.4,6.1,0.3,9.2-0.1c0-0.7-0.1-1.4-0.1-2.2c-0.2-3.2-0.7-6.6-1.2-9.8c-0.3-1.9-0.6-3.8-1-5.7c-0.2-1.2-0.5-2.3-0.9-3.5
		c0.1-2.1,2.8-2.6,3.6-0.2c1.9,6.1,3.1,12.5,3.5,18.9c5.1-2.9,11.8-5.1,16.7-2.4c0.4-2.1,0.8-4.2,1.1-6.5c1.1-9.5-0.1-16.6-2.3-21.9
		c-3.9,2.3-8.9,3.5-13.6,4.1c5.3-1.5,9.9-4.7,13.2-9.1c-1.2,0.4-2.5,0.9-3.8,1.2C149.5,310.6,147.2,311.6,144.7,312.3L144.7,312.3z
		 M88,227.3c5.2,1.5,10.1,3.8,14.6,6.8c-1.9,1.5-3.6,3.1-5.3,4.9c-0.9-1.4-1.8-2.8-2.8-4.2C92.6,232.1,90.4,229.6,88,227.3L88,227.3
		z M79.5,226.1H80c5.8,3.2,10.9,9.6,14.7,16c-0.8,1-1.5,2-2.3,3.1c-2.8,4.2-5,8.8-6.5,13.6c-4.7-6.3-10.6-17.8-6.6-32.6
		C79.4,226.2,79.4,226.2,79.5,226.1L79.5,226.1z M185.8,226.1h-0.5c-5.8,3.2-10.9,9.6-14.7,16c0.6,0.8,1.2,1.6,1.8,2.5
		c3,4.4,5.3,9.2,6.9,14.2c4.7-6.3,10.6-17.8,6.6-32.6L185.8,226.1z M177.2,227.3c-5.2,1.5-10.1,3.8-14.6,6.8
		c1.9,1.5,3.6,3.2,5.3,4.9c0.9-1.4,1.8-2.9,2.8-4.2C172.6,232.1,174.8,229.6,177.2,227.3L177.2,227.3z M107.4,346.1
		c1.4,5.3,3.3,10.4,5.9,15.2c0.3,0.5,0.7,1,1.2,1.2c2,1.2,4.8,2.5,5.3,7.6c-2.3-2.9-4.5-5-7.9-5.7c-1.8-0.1-3.5,0.5-4.8,1.6
		c-2.8,2.9-0.8,7.9,0.9,8.3c1.7,0.4,19,0,19,0s0.7-3.2-0.6-5c-1.3-1.8-3.4-11-3.5-20.8C118.9,344.9,112.6,342.5,107.4,346.1
		L107.4,346.1z M156,346.1c-1.4,5.3-3.3,10.4-5.9,15.2c-0.3,0.5-0.7,1-1.2,1.2c-2,1.2-4.8,2.5-5.3,7.6c2.3-2.9,4.5-5,7.9-5.7
		c1.6,0,3.5,0.3,4.8,1.6c2.8,2.9,0.8,7.9-0.9,8.3c-1.7,0.4-19,0-19,0s-0.7-3.2,0.6-5c1.3-1.8,3.4-11,3.5-20.8
		C144.6,344.9,150.9,342.5,156,346.1L156,346.1z M133.3,367.9c-0.5,0-1,0-1.6,0h-1.2c-0.2-0.4-0.4-0.7-0.6-1.1
		c-0.3-0.6-0.5-1.2-0.6-1.8c-0.5-1.7-0.9-3.5-1.2-5.3c-0.6-3.3-0.9-6.6-0.9-10c3.2,0.4,6.4,0.4,9.5-0.1c-0.1,3.9-0.5,7.7-1.2,11.6
		c-0.3,1.3-0.9,4.6-1.6,5.8C133.6,367.3,133.5,367.6,133.3,367.9L133.3,367.9z M171.1,346.9c0.1,9.4-5.8,13.1-9.2,15.8
		c15.7-7.2,17.5,5,15.9,6.4h-16.3c-0.1-4-2.9-7.4-6.8-8.3c1.2-2.6,2.3-5.3,3.2-8.1C162.5,350.3,168,347.8,171.1,346.9L171.1,346.9z
		 M162.5,333.2c3.9,1.8,6.4,6,7,10.7c-3.3,1.1-6.5,2.4-9.6,4.1c1.1-4.1,1.9-8.2,2.4-12.4C162.4,334.8,162.5,334,162.5,333.2
		L162.5,333.2z M100.9,333.3c-3.9,1.9-6.3,6-6.8,10.6c3.3,1.1,6.4,2.4,9.5,4c-1.1-4.1-1.9-8.2-2.4-12.4
		C101.1,334.8,101,334,100.9,333.3L100.9,333.3z M92.3,346.9c-0.1,9.4,5.8,13.1,9.2,15.8c-15.7-7.2-17.5,5-15.9,6.4h16
		c0.1-2.3,1-4.4,2.5-6c1.1-1.2,2.6-2,4.1-2.5c-0.3-0.7-0.6-1.3-0.9-2c-0.9-2-1.7-4.1-2.4-6.2C100.5,350.1,95.4,347.7,92.3,346.9
		L92.3,346.9z M92.3,346.9"/>
</g>
<path class="st1" d="M286.4,276.9l-28.2,82.4h-31.5l28.2-82.4h-22.5l8.9-26h76.4l-8.9,26H286.4z M286.4,276.9"/>
<path class="st1" d="M370.6,333.4l-8.8,25.8h-81.6l37.1-108.4h71.3l-8.6,25h-38.6l-5.4,15.8h39.5l-8.2,24.1h-39.5l-6.1,17.7H370.6z
	 M370.6,333.4"/>
<path class="st1" d="M453.2,359.3h-36.4l-4.7-40.8l-16.6,15.7l-8.5,25h-31.4l37.1-108.4h31.4l-15.3,44.7l45.1-44.7h29.9l-40.9,39.6
	L453.2,359.3z M453.2,359.3"/>
<path class="st2" d="M509.8,276.9l-28.2,82.4h-29.2l-0.7-4.9l26.5-77.5h-22.2l26.8-26H581l-48.8,26H509.8z M509.8,276.9"/>
<path class="st1" d="M549.3,359.3c-15,0-25.5-4.9-31.6-14.7c-6.1-9.8-6.2-22.9-0.6-39.4c5.2-15.3,14.6-28.8,27.1-38.9
	c12.1-10,27.3-15.5,43-15.3c14.8,0,25.3,4.8,31.4,14.5c6,9.6,6.2,22.6,0.6,38.6c-5.8,16.7-15.2,30.1-28.1,40.1
	C578.1,354.2,564.2,359.3,549.3,359.3L549.3,359.3z M557.4,335.4c5.6,0,10.4-2.4,14.5-7.2c4.1-4.8,8.4-13.5,12.7-26.1
	c6.3-18.3,4.5-27.5-5.5-27.5c-10.8,0-19.8,10.4-27.1,31.3C545.3,325.6,547,335.4,557.4,335.4L557.4,335.4z M557.4,335.4"/>
<path class="st1" d="M690.3,359.3h-27.1l-13.5-47.8c-1.9-7.4-3.2-14.9-3.6-22.5c-0.5,6-1.6,12-3.5,17.8l-18,52.5h-27l37-108.4h31.4
	l11.7,39.7c2.1,6.8,3.5,13.8,4.3,20.8c1.6-9.7,4-19.2,7.2-28.4l10.9-32.1h27.2L690.3,359.3z M690.3,359.3"/>
</svg>
